# File created by Blade
# Date/Time:  Mon Sep 22 15:39:46 2014
# Frame Rate: 120.000 fps
#------------------------------------------------------
:FULLY-SPECIFIED
:DEGREES
1812
root 2.248350 37.040548 3.214592 0.430649 -0.931715 2.149600
RightUpLeg 9.311835 -7.403273 -4.103830
RightLeg -5.429352 -0.000000 0.000000
RightFoot -13.393355 -15.080489 16.793587
RightToeBase 15.377781 -0.000000 -0.000000
LeftUpLeg 7.312492 0.380562 1.083020
LeftLeg -3.167159 -0.000000 0.000000
LeftFoot -9.737707 13.309447 -17.670852
LeftToeBase 8.639352 -0.000000 -0.000000
Spine -2.553837 3.288733 -2.558643
RightShoulder 0.398777 -0.908941 -27.193118
RightArm 30.823520 57.451502 55.709177
RightForeArm 87.934259 -0.000000 103.517089
RightHand 15.618744 0.000000 -16.640595
RightHandThumb1 -24.326973 -0.000000 -32.862282
LeftShoulder -14.065644 33.760329 -5.001815
LeftArm 39.294390 3.047212 -68.840325
LeftForeArm 20.449897 -0.000000 23.821941
LeftHand -15.546139 -0.000000 -5.656428
LeftHandThumb1 -26.253704 0.000000 33.147579
Head 5.007707 -35.529263 0.923576
1813
root 2.241884 37.041021 3.199558 0.481871 -1.092336 2.121445
RightUpLeg 9.215364 -7.340461 -4.062997
RightLeg -5.446602 -0.000000 0.000000
RightFoot -13.313699 -15.031831 16.754315
RightToeBase 15.327273 -0.000000 -0.000000
LeftUpLeg 7.265298 0.526793 1.120033
LeftLeg -3.180513 -0.000000 0.000000
LeftFoot -9.729020 13.327249 -17.650424
LeftToeBase 8.593920 -0.000000 -0.000000
Spine -2.548085 3.325862 -2.598756
RightShoulder 0.677918 -0.772089 -27.068915
RightArm 30.664919 57.134465 55.048785
RightForeArm 87.536109 -0.000000 103.226123
RightHand 15.949179 0.000000 -16.376128
RightHandThumb1 -24.326973 -0.000000 -32.862282
LeftShoulder -14.079986 33.821660 -5.033689
LeftArm 39.400662 3.221114 -68.772115
LeftForeArm 20.389597 -0.000000 23.914615
LeftHand -15.460966 0.000000 -5.673880
LeftHandThumb1 -26.253704 0.000000 33.147579
Head 5.021606 -35.581459 0.965585
1814
root 2.231893 37.041896 3.188362 0.507220 -1.242204 2.093875
RightUpLeg 9.158982 -7.252235 -4.021070
RightLeg -5.469007 -0.000000 0.000000
RightFoot -13.257782 -14.995880 16.714058
RightToeBase 15.113814 -0.000000 -0.000000
LeftUpLeg 7.253275 0.644018 1.159675
LeftLeg -3.201302 -0.000000 0.000000
LeftFoot -9.735935 13.345681 -17.692913
LeftToeBase 8.632898 -0.000000 -0.000000
Spine -2.524447 3.340057 -2.643124
RightShoulder 0.941927 -0.612454 -26.916667
RightArm 30.905978 56.933103 54.883408
RightForeArm 87.146089 0.000000 102.974645
RightHand 16.092050 0.000000 -16.740526
RightHandThumb1 -24.326973 -0.000000 -32.862282
LeftShoulder -14.066417 33.839068 -5.043828
LeftArm 39.444864 3.396994 -68.712855
LeftForeArm 20.286286 -0.000000 24.004947
LeftHand -15.460671 -0.000000 -5.696926
LeftHandThumb1 -26.253704 0.000000 33.147579
Head 5.056975 -35.579225 0.995995
1815
root 2.224682 37.042846 3.175701 0.536002 -1.432725 2.081256
RightUpLeg 9.093647 -7.133452 -3.998320
RightLeg -5.503567 -0.000000 0.000000
RightFoot -13.190134 -14.940232 16.700440
RightToeBase 15.271417 -0.000000 -0.000000
LeftUpLeg 7.244142 0.799691 1.180668
LeftLeg -3.230963 -0.000000 0.000000
LeftFoot -9.719621 13.376861 -17.692241
LeftToeBase 8.644261 -0.000000 -0.000000
Spine -2.513773 3.391765 -2.695917
RightShoulder 1.275236 -0.629069 -26.742487
RightArm 31.598037 57.038292 55.235802
RightForeArm 86.461813 0.000000 102.780064
RightHand 16.288603 -0.000000 -16.718242
RightHandThumb1 -24.326973 -0.000000 -32.862282
LeftShoulder -14.032614 33.909288 -5.054533
LeftArm 39.511337 3.528991 -68.686323
LeftForeArm 20.224749 -0.000000 24.067592
LeftHand -15.346913 -0.000000 -5.684674
LeftHandThumb1 -26.253704 0.000000 33.147579
Head 5.115735 -35.574447 1.007277
1816
root 2.215243 37.042992 3.163711 0.545638 -1.618996 2.059868
RightUpLeg 9.058006 -7.039035 -3.962337
RightLeg -5.558524 -0.000000 0.000000
RightFoot -13.120719 -14.928549 16.643521
RightToeBase 15.090338 -0.000000 -0.000000
LeftUpLeg 7.246280 0.971700 1.216444
LeftLeg -3.240710 -0.000000 0.000000
LeftFoot -9.717579 13.366477 -17.728480
LeftToeBase 8.618760 -0.000000 -0.000000
Spine -2.464480 3.476520 -2.747277
RightShoulder 1.606326 -0.633869 -26.578781
RightArm 32.501609 57.324227 55.984197
RightForeArm 85.508454 -0.000000 102.663948
RightHand 16.460413 -0.000000 -16.636152
RightHandThumb1 -24.326973 -0.000000 -32.862282
LeftShoulder -13.949909 33.921714 -5.022415
LeftArm 39.569125 3.724530 -68.615809
LeftForeArm 20.039929 -0.000000 24.076701
LeftHand -15.229050 -0.000000 -5.502106
LeftHandThumb1 -26.253704 0.000000 33.147579
Head 5.140078 -35.639862 1.031854
1817
root 2.204215 37.043427 3.152739 0.538028 -1.790343 2.022737
RightUpLeg 9.018444 -7.028461 -3.925438
RightLeg -5.547994 -0.000000 0.000000
RightFoot -13.060572 -14.745783 16.629161
RightToeBase 15.293283 -0.000000 -0.000000
LeftUpLeg 7.261462 1.118360 1.269093
LeftLeg -3.241654 -0.000000 0.000000
LeftFoot -9.739272 13.377139 -17.748847
LeftToeBase 8.606115 -0.000000 -0.000000
Spine -2.392477 3.561563 -2.777719
RightShoulder 1.900791 -0.558775 -26.404345
RightArm 33.528166 57.646994 56.963547
RightForeArm 84.570847 0.000000 102.554454
RightHand 16.639196 -0.000000 -16.287353
RightHandThumb1 -24.326973 -0.000000 -32.862282
LeftShoulder -13.854851 33.967953 -4.983507
LeftArm 39.665521 3.911846 -68.566469
LeftForeArm 19.933747 -0.000000 24.059535
LeftHand -15.225557 -0.000000 -5.548771
LeftHandThumb1 -26.253704 0.000000 33.147579
Head 5.169819 -35.726650 1.025096
1818
root 2.194262 37.043335 3.143015 0.531150 -1.982801 1.986882
RightUpLeg 8.997280 -6.948094 -3.886798
RightLeg -5.590120 -0.000000 0.000000
RightFoot -12.995147 -14.644890 16.665107
RightToeBase 15.320824 -0.000000 -0.000000
LeftUpLeg 7.282834 1.281005 1.316910
LeftLeg -3.247393 -0.000000 0.000000
LeftFoot -9.755916 13.403109 -17.752536
LeftToeBase 8.626895 -0.000000 -0.000000
Spine -2.326888 3.682837 -2.796478
RightShoulder 2.186475 -0.544640 -26.285800
RightArm 35.011896 58.097487 58.585686
RightForeArm 83.329613 0.000000 102.513476
RightHand 16.773480 -0.000000 -15.885266
RightHandThumb1 -24.326973 -0.000000 -32.862282
LeftShoulder -13.744167 34.016066 -4.945424
LeftArm 39.771830 4.108481 -68.499845
LeftForeArm 19.852575 -0.000000 24.009354
LeftHand -15.217398 -0.000000 -5.644609
LeftHandThumb1 -26.253704 0.000000 33.147579
Head 5.168215 -35.772289 1.015536
1819
root 2.185445 37.042434 3.131222 0.520679 -2.164467 1.950948
RightUpLeg 8.984300 -6.911896 -3.858774
RightLeg -5.636696 -0.000000 0.000000
RightFoot -12.895080 -14.488797 16.617260
RightToeBase 15.312732 -0.000000 -0.000000
LeftUpLeg 7.295809 1.410491 1.361168
LeftLeg -3.237240 -0.000000 0.000000
LeftFoot -9.798308 13.436520 -17.788128
LeftToeBase 8.609193 -0.000000 -0.000000
Spine -2.243678 3.782634 -2.821529
RightShoulder 2.473843 -0.762673 -26.196328
RightArm 37.131001 58.715896 60.904442
RightForeArm 81.953206 -0.000000 102.510821
RightHand 16.878044 0.000000 -15.349939
RightHandThumb1 -24.326973 -0.000000 -32.862282
LeftShoulder -13.615543 34.029235 -4.869913
LeftArm 39.850472 4.327584 -68.452535
LeftForeArm 19.757306 0.000000 23.932630
LeftHand -15.165130 0.000000 -5.656185
LeftHandThumb1 -26.253704 0.000000 33.147579
Head 5.103202 -35.772808 1.088016
1820
root 2.175140 37.041614 3.119171 0.500426 -2.354779 1.913426
RightUpLeg 8.956668 -6.886737 -3.816815
RightLeg -5.645735 -0.000000 0.000000
RightFoot -12.832514 -14.375305 16.573275
RightToeBase 15.318442 -0.000000 -0.000000
LeftUpLeg 7.322272 1.519266 1.406336
LeftLeg -3.232412 -0.000000 0.000000
LeftFoot -9.841568 13.508689 -17.798061
LeftToeBase 8.621416 -0.000000 -0.000000
Spine -2.141157 3.899487 -2.837202
RightShoulder 2.667293 -0.434316 -26.161632
RightArm 38.662843 58.988046 62.968584
RightForeArm 80.623847 0.000000 102.564451
RightHand 16.865743 -0.000000 -14.777832
RightHandThumb1 -24.326973 -0.000000 -32.862282
LeftShoulder -13.527264 34.047582 -4.821599
LeftArm 40.008141 4.556462 -68.389858
LeftForeArm 19.727876 -0.000000 23.764207
LeftHand -15.033215 0.000000 -5.720931
LeftHandThumb1 -26.253704 0.000000 33.147579
Head 5.023517 -35.764419 1.133593
1821
root 2.164309 37.039973 3.109122 0.479980 -2.544797 1.872179
RightUpLeg 8.939267 -6.871405 -3.774223
RightLeg -5.663559 -0.000000 0.000000
RightFoot -12.765803 -14.248211 16.522611
RightToeBase 15.154796 -0.000000 -0.000000
LeftUpLeg 7.357112 1.638072 1.452739
LeftLeg -3.236307 -0.000000 0.000000
LeftFoot -9.888380 13.594285 -17.781998
LeftToeBase 8.619009 -0.000000 -0.000000
Spine -2.051017 4.023542 -2.852808
RightShoulder 2.908621 0.038246 -26.204436
RightArm 39.940750 59.260855 65.041707
RightForeArm 79.404112 -0.000000 102.705764
RightHand 16.880924 -0.000000 -13.956772
RightHandThumb1 -24.326973 -0.000000 -32.862282
LeftShoulder -13.426275 34.025086 -4.734527
LeftArm 40.130586 4.820060 -68.355621
LeftForeArm 19.762435 -0.000000 23.561507
LeftHand -14.987208 -0.000000 -5.798299
LeftHandThumb1 -26.253704 0.000000 33.147579
Head 4.955272 -35.754803 1.195246
1822
root 2.155727 37.038116 3.100657 0.459143 -2.711192 1.841767
RightUpLeg 8.927406 -6.862479 -3.743886
RightLeg -5.681096 -0.000000 0.000000
RightFoot -12.714514 -14.117723 16.481354
RightToeBase 15.188493 -0.000000 -0.000000
LeftUpLeg 7.386823 1.727139 1.486708
LeftLeg -3.231583 -0.000000 0.000000
LeftFoot -9.927794 13.669218 -17.785346
LeftToeBase 8.611818 -0.000000 -0.000000
Spine -1.967866 4.106942 -2.879669
RightShoulder 3.166511 0.107447 -26.192082
RightArm 42.049009 59.681593 67.775280
RightForeArm 78.456024 -0.000000 102.886647
RightHand 16.688347 -0.000000 -13.216743
RightHandThumb1 -24.326973 -0.000000 -32.862282
LeftShoulder -13.330386 34.043871 -4.650512
LeftArm 40.262945 5.088387 -68.306934
LeftForeArm 19.784182 -0.000000 23.386953
LeftHand -14.980811 0.000000 -5.806946
LeftHandThumb1 -26.253704 0.000000 33.147579
Head 4.889367 -35.682278 1.280376
